<svg xmlns="http://www.w3.org/2000/svg" width="860" height="332" viewBox="0 0 860 332"><rect width="100%" height="100%" fill="#fffaf2"/><rect x="62" y="18" width="20" height="4" rx="2" fill="#7b8793" /><text x="90" y="23" fill="#3e342d" font-size="13">SFT</text><rect x="202" y="18" width="20" height="4" rx="2" fill="#246a73" /><text x="230" y="23" fill="#3e342d" font-size="13">TC-FM</text><rect x="342" y="18" width="20" height="4" rx="2" fill="#b45a3c" /><text x="370" y="23" fill="#3e342d" font-size="13">TC-FM+</text><line x1="62" y1="290.0" x2="836" y2="290.0" stroke="rgba(74,57,45,0.10)" /><text x="52" y="294.0" text-anchor="end" fill="#6f6257" font-size="12">2.0</text><line x1="62" y1="231.5" x2="836" y2="231.5" stroke="rgba(74,57,45,0.10)" /><text x="52" y="235.5" text-anchor="end" fill="#6f6257" font-size="12">3.4</text><line x1="62" y1="173.0" x2="836" y2="173.0" stroke="rgba(74,57,45,0.10)" /><text x="52" y="177.0" text-anchor="end" fill="#6f6257" font-size="12">4.8</text><line x1="62" y1="114.5" x2="836" y2="114.5" stroke="rgba(74,57,45,0.10)" /><text x="52" y="118.5" text-anchor="end" fill="#6f6257" font-size="12">6.3</text><line x1="62" y1="56.0" x2="836" y2="56.0" stroke="rgba(74,57,45,0.10)" /><text x="52" y="60.0" text-anchor="end" fill="#6f6257" font-size="12">7.7</text><line x1="62" y1="290.0" x2="836" y2="290.0" stroke="rgba(74,57,45,0.22)" /><text x="62.0" y="320" text-anchor="middle" fill="#6f6257" font-size="12">10</text><text x="320.0" y="320" text-anchor="middle" fill="#6f6257" font-size="12">20</text><text x="578.0" y="320" text-anchor="middle" fill="#6f6257" font-size="12">40</text><text x="836.0" y="320" text-anchor="middle" fill="#6f6257" font-size="12">60</text><polyline fill="none" stroke="#7b8793" stroke-width="4" points="62.0,79.3 320.0,205.3 578.0,236.0 836.0,234.3" /><circle cx="62.0" cy="79.3" r="5" fill="#7b8793" /><circle cx="320.0" cy="205.3" r="5" fill="#7b8793" /><circle cx="578.0" cy="236.0" r="5" fill="#7b8793" /><circle cx="836.0" cy="234.3" r="5" fill="#7b8793" /><polyline fill="none" stroke="#246a73" stroke-width="4" points="62.0,235.7 320.0,250.7 578.0,246.4 836.0,241.8" /><circle cx="62.0" cy="235.7" r="5" fill="#246a73" /><circle cx="320.0" cy="250.7" r="5" fill="#246a73" /><circle cx="578.0" cy="246.4" r="5" fill="#246a73" /><circle cx="836.0" cy="241.8" r="5" fill="#246a73" /><polyline fill="none" stroke="#b45a3c" stroke-width="4" points="62.0,252.3 320.0,272.6 578.0,281.0 836.0,281.1" /><circle cx="62.0" cy="252.3" r="5" fill="#b45a3c" /><circle cx="320.0" cy="272.6" r="5" fill="#b45a3c" /><circle cx="578.0" cy="281.0" r="5" fill="#b45a3c" /><circle cx="836.0" cy="281.1" r="5" fill="#b45a3c" /></svg>