<svg xmlns="http://www.w3.org/2000/svg" width="860" height="356" viewBox="0 0 860 356">
<rect width="100%" height="100%" fill="#fffaf2"/>
<text x="62" y="28" fill="#171310" font-size="20" font-family="Georgia, serif" font-weight="700">Background-only LPIPS vs. sampling steps</text>
<rect x="62" y="44" width="20" height="4" rx="2" fill="#7b8793" />
<text x="90" y="49" fill="#3e342d" font-size="13">SFT</text>
<rect x="202" y="44" width="20" height="4" rx="2" fill="#246a73" />
<text x="230" y="49" fill="#3e342d" font-size="13">TC-FM</text>
<rect x="342" y="44" width="20" height="4" rx="2" fill="#b45a3c" />
<text x="370" y="49" fill="#3e342d" font-size="13">TC-FM+</text>
<line x1="62" y1="314.0" x2="836" y2="314.0" stroke="rgba(74,57,45,0.10)" />
<text x="52" y="318.0" text-anchor="end" fill="#6f6257" font-size="12">0.011</text>
<line x1="62" y1="255.0" x2="836" y2="255.0" stroke="rgba(74,57,45,0.10)" />
<text x="52" y="259.0" text-anchor="end" fill="#6f6257" font-size="12">0.028</text>
<line x1="62" y1="196.0" x2="836" y2="196.0" stroke="rgba(74,57,45,0.10)" />
<text x="52" y="200.0" text-anchor="end" fill="#6f6257" font-size="12">0.044</text>
<line x1="62" y1="137.0" x2="836" y2="137.0" stroke="rgba(74,57,45,0.10)" />
<text x="52" y="141.0" text-anchor="end" fill="#6f6257" font-size="12">0.061</text>
<line x1="62" y1="78.0" x2="836" y2="78.0" stroke="rgba(74,57,45,0.10)" />
<text x="52" y="82.0" text-anchor="end" fill="#6f6257" font-size="12">0.077</text>
<line x1="62" y1="314.0" x2="836" y2="314.0" stroke="rgba(74,57,45,0.22)" />
<text x="62.0" y="344" text-anchor="middle" fill="#6f6257" font-size="12">10</text>
<text x="320.0" y="344" text-anchor="middle" fill="#6f6257" font-size="12">20</text>
<text x="578.0" y="344" text-anchor="middle" fill="#6f6257" font-size="12">40</text>
<text x="836.0" y="344" text-anchor="middle" fill="#6f6257" font-size="12">60</text>
<polyline fill="none" stroke="#7b8793" stroke-width="4" points="62.0,98.5 320.0,201.4 578.0,256.1 836.0,255.2" />
<circle cx="62.0" cy="98.5" r="5" fill="#7b8793" />
<circle cx="320.0" cy="201.4" r="5" fill="#7b8793" />
<circle cx="578.0" cy="256.1" r="5" fill="#7b8793" />
<circle cx="836.0" cy="255.2" r="5" fill="#7b8793" />
<polyline fill="none" stroke="#246a73" stroke-width="4" points="62.0,263.1 320.0,278.3 578.0,286.7 836.0,275.6" />
<circle cx="62.0" cy="263.1" r="5" fill="#246a73" />
<circle cx="320.0" cy="278.3" r="5" fill="#246a73" />
<circle cx="578.0" cy="286.7" r="5" fill="#246a73" />
<circle cx="836.0" cy="275.6" r="5" fill="#246a73" />
<polyline fill="none" stroke="#b45a3c" stroke-width="4" points="62.0,247.8 320.0,287.4 578.0,309.5 836.0,307.1" />
<circle cx="62.0" cy="247.8" r="5" fill="#b45a3c" />
<circle cx="320.0" cy="287.4" r="5" fill="#b45a3c" />
<circle cx="578.0" cy="309.5" r="5" fill="#b45a3c" />
<circle cx="836.0" cy="307.1" r="5" fill="#b45a3c" />
</svg>