<svg xmlns="http://www.w3.org/2000/svg" width="860" height="356" viewBox="0 0 860 356">
<rect width="100%" height="100%" fill="#fffaf2"/>
<text x="62" y="28" fill="#171310" font-size="20" font-family="Georgia, serif" font-weight="700">Background-only L1 vs. sampling steps</text>
<rect x="62" y="44" width="20" height="4" rx="2" fill="#7b8793" />
<text x="90" y="49" fill="#3e342d" font-size="13">SFT</text>
<rect x="202" y="44" width="20" height="4" rx="2" fill="#246a73" />
<text x="230" y="49" fill="#3e342d" font-size="13">TC-FM</text>
<rect x="342" y="44" width="20" height="4" rx="2" fill="#b45a3c" />
<text x="370" y="49" fill="#3e342d" font-size="13">TC-FM+</text>
<line x1="62" y1="314.0" x2="836" y2="314.0" stroke="rgba(74,57,45,0.10)" />
<text x="52" y="318.0" text-anchor="end" fill="#6f6257" font-size="12">2.0</text>
<line x1="62" y1="255.0" x2="836" y2="255.0" stroke="rgba(74,57,45,0.10)" />
<text x="52" y="259.0" text-anchor="end" fill="#6f6257" font-size="12">3.4</text>
<line x1="62" y1="196.0" x2="836" y2="196.0" stroke="rgba(74,57,45,0.10)" />
<text x="52" y="200.0" text-anchor="end" fill="#6f6257" font-size="12">4.8</text>
<line x1="62" y1="137.0" x2="836" y2="137.0" stroke="rgba(74,57,45,0.10)" />
<text x="52" y="141.0" text-anchor="end" fill="#6f6257" font-size="12">6.3</text>
<line x1="62" y1="78.0" x2="836" y2="78.0" stroke="rgba(74,57,45,0.10)" />
<text x="52" y="82.0" text-anchor="end" fill="#6f6257" font-size="12">7.7</text>
<line x1="62" y1="314.0" x2="836" y2="314.0" stroke="rgba(74,57,45,0.22)" />
<text x="62.0" y="344" text-anchor="middle" fill="#6f6257" font-size="12">10</text>
<text x="320.0" y="344" text-anchor="middle" fill="#6f6257" font-size="12">20</text>
<text x="578.0" y="344" text-anchor="middle" fill="#6f6257" font-size="12">40</text>
<text x="836.0" y="344" text-anchor="middle" fill="#6f6257" font-size="12">60</text>
<polyline fill="none" stroke="#7b8793" stroke-width="4" points="62.0,101.5 320.0,228.5 578.0,259.5 836.0,257.8" />
<circle cx="62.0" cy="101.5" r="5" fill="#7b8793" />
<circle cx="320.0" cy="228.5" r="5" fill="#7b8793" />
<circle cx="578.0" cy="259.5" r="5" fill="#7b8793" />
<circle cx="836.0" cy="257.8" r="5" fill="#7b8793" />
<polyline fill="none" stroke="#246a73" stroke-width="4" points="62.0,259.3 320.0,274.3 578.0,270.0 836.0,265.4" />
<circle cx="62.0" cy="259.3" r="5" fill="#246a73" />
<circle cx="320.0" cy="274.3" r="5" fill="#246a73" />
<circle cx="578.0" cy="270.0" r="5" fill="#246a73" />
<circle cx="836.0" cy="265.4" r="5" fill="#246a73" />
<polyline fill="none" stroke="#b45a3c" stroke-width="4" points="62.0,276.0 320.0,296.4 578.0,304.9 836.0,305.0" />
<circle cx="62.0" cy="276.0" r="5" fill="#b45a3c" />
<circle cx="320.0" cy="296.4" r="5" fill="#b45a3c" />
<circle cx="578.0" cy="304.9" r="5" fill="#b45a3c" />
<circle cx="836.0" cy="305.0" r="5" fill="#b45a3c" />
</svg>