<svg xmlns="http://www.w3.org/2000/svg" width="860" height="320" viewBox="0 0 860 320">
  <rect width="100%" height="100%" fill="#fffaf2"/>
  <text x="62" y="18" fill="#171310" font-size="18" font-family="Georgia, serif" font-weight="700">Background-only LPIPS vs. sampling steps</text>
  <line x1="62" y1="278.0" x2="836" y2="278.0" stroke="rgba(74,57,45,0.10)" /><text x="52" y="282.0" text-anchor="end" fill="#6f6257" font-size="12">0.011</text><line x1="62" y1="217.0" x2="836" y2="217.0" stroke="rgba(74,57,45,0.10)" /><text x="52" y="221.0" text-anchor="end" fill="#6f6257" font-size="12">0.028</text><line x1="62" y1="156.0" x2="836" y2="156.0" stroke="rgba(74,57,45,0.10)" /><text x="52" y="160.0" text-anchor="end" fill="#6f6257" font-size="12">0.044</text><line x1="62" y1="95.0" x2="836" y2="95.0" stroke="rgba(74,57,45,0.10)" /><text x="52" y="99.0" text-anchor="end" fill="#6f6257" font-size="12">0.061</text><line x1="62" y1="34.0" x2="836" y2="34.0" stroke="rgba(74,57,45,0.10)" /><text x="52" y="38.0" text-anchor="end" fill="#6f6257" font-size="12">0.077</text>
  <line x1="62" y1="278.0" x2="836" y2="278.0" stroke="rgba(74,57,45,0.22)" />
  <text x="62.0" y="308" text-anchor="middle" fill="#6f6257" font-size="12">10</text><text x="320.0" y="308" text-anchor="middle" fill="#6f6257" font-size="12">20</text><text x="578.0" y="308" text-anchor="middle" fill="#6f6257" font-size="12">40</text><text x="836.0" y="308" text-anchor="middle" fill="#6f6257" font-size="12">60</text>
  <polyline fill="none" stroke="#7b8793" stroke-width="4" points="62.0,55.2 320.0,161.6 578.0,218.1 836.0,217.2" /><circle cx="62.0" cy="55.2" r="5" fill="#7b8793" /><circle cx="320.0" cy="161.6" r="5" fill="#7b8793" /><circle cx="578.0" cy="218.1" r="5" fill="#7b8793" /><circle cx="836.0" cy="217.2" r="5" fill="#7b8793" /><polyline fill="none" stroke="#246a73" stroke-width="4" points="62.0,225.4 320.0,241.1 578.0,249.7 836.0,238.3" /><circle cx="62.0" cy="225.4" r="5" fill="#246a73" /><circle cx="320.0" cy="241.1" r="5" fill="#246a73" /><circle cx="578.0" cy="249.7" r="5" fill="#246a73" /><circle cx="836.0" cy="238.3" r="5" fill="#246a73" /><polyline fill="none" stroke="#b45a3c" stroke-width="4" points="62.0,209.6 320.0,250.4 578.0,273.3 836.0,270.8" /><circle cx="62.0" cy="209.6" r="5" fill="#b45a3c" /><circle cx="320.0" cy="250.4" r="5" fill="#b45a3c" /><circle cx="578.0" cy="273.3" r="5" fill="#b45a3c" /><circle cx="836.0" cy="270.8" r="5" fill="#b45a3c" />
  <rect x="62" y="12" width="20" height="4" rx="2" fill="#7b8793" /><text x="90" y="17" fill="#3e342d" font-size="13">SFT</text><rect x="202" y="12" width="20" height="4" rx="2" fill="#246a73" /><text x="230" y="17" fill="#3e342d" font-size="13">TC-FM</text><rect x="342" y="12" width="20" height="4" rx="2" fill="#b45a3c" /><text x="370" y="17" fill="#3e342d" font-size="13">TC-FM+</text>
</svg>